<?xml version="1.0" encoding="utf-8"?>
<svg version="1.1" baseProfile="tiny-ps" xmlns="http://www.w3.org/2000/svg" viewBox="0 0 1000 1000" width="1000" height="1000" style="enable-background:new 0 0 229.2 110;" xml:space="preserve">
	<style type="text/css">
		.shp0 { fill: #7e00ff;}
		.shp1 { fill: #000000;}
	</style>
	<path class="shp0" d="M421,335.16C429.52,335.09,441.23,335.67,447,336.44C452.77,337.2,461.32,338.81,466,340C470.68,341.19,478.32,343.74,483,345.67C487.68,347.6,495.1,351.35,499.5,354.01C503.9,356.66,510.88,361.7,515,365.21C519.13,368.72,525.54,375.62,529.26,380.54C532.98,385.47,537.77,393.1,539.91,397.5C542.05,401.9,544.73,408.88,545.87,413C547.01,417.13,548.62,424.77,549.46,430C550.3,435.23,550.99,443.77,550.99,449C550.99,454.23,550.12,464.35,549.06,471.5C547.99,478.65,545.94,488.55,544.5,493.5C543.06,498.45,540.11,506.55,537.95,511.5C535.79,516.45,531.81,524.1,529.09,528.5C526.38,532.9,520.98,540.33,517.1,545C513.21,549.67,506.76,556.35,502.77,559.84C498.77,563.32,491.9,568.56,487.5,571.48C483.1,574.4,475.45,578.81,470.5,581.28C465.55,583.75,457.68,587.12,453,588.78C448.32,590.43,438.65,593.06,431.5,594.61C419.17,597.29,417.18,597.44,393,597.47C372.05,597.49,365.98,597.18,359,595.68C354.32,594.68,346.9,592.8,342.5,591.5C338.1,590.19,329.55,586.64,323.5,583.6C317.45,580.55,309.57,575.86,306,573.16C302.43,570.47,296.18,564.71,292.13,560.38C288.08,556.05,282.56,548.9,279.86,544.5C277.16,540.1,273.57,532.9,271.88,528.5C270.2,524.1,267.87,516.67,266.72,512C264.93,504.77,264.63,500.58,264.68,484C264.73,467.98,265.13,462.63,266.93,454C268.14,448.23,270.48,439.45,272.13,434.5C273.79,429.55,276.72,422.13,278.63,418C280.55,413.88,285.12,406,288.81,400.51C292.49,395.01,299.32,386.52,304,381.65C308.68,376.77,316.32,369.96,321,366.52C325.68,363.08,333.1,358.21,337.5,355.71C341.9,353.21,349.55,349.5,354.5,347.46C359.45,345.43,368.45,342.5,374.5,340.95C380.55,339.4,388.88,337.66,393,337.07C397.13,336.49,401.63,335.84,403,335.64C404.38,335.44,412.48,335.22,421,335.16ZM393.5,409.2C390.2,410.53,384.8,413.44,381.5,415.66C378.2,417.88,373.54,421.9,371.15,424.6C368.76,427.29,365.07,432.43,362.95,436C360.83,439.57,357.74,446.55,356.08,451.5C354.11,457.39,352.76,463.96,352.2,470.5C351.73,476,351.64,483.43,352.01,487C352.37,490.57,353.44,495.98,354.38,499C355.31,502.02,357.75,506.72,359.79,509.44C361.83,512.16,365.75,516.23,368.5,518.5C371.25,520.76,376.2,523.65,379.5,524.91C383.85,526.58,388.38,527.35,396,527.71C403.64,528.08,408.34,527.77,413.25,526.61C416.96,525.72,422.36,523.86,425.25,522.48C428.14,521.09,433.09,517.94,436.25,515.48C439.41,513.01,444.03,508.41,446.5,505.25C448.98,502.09,452.65,496.35,454.65,492.5C456.66,488.65,459.39,481.23,460.72,476C462.59,468.67,463.16,463.76,463.21,454.5C463.26,444.66,462.88,441.33,461.07,436C459.86,432.43,457.41,427.25,455.62,424.5C453.83,421.75,450.37,417.87,447.93,415.87C445.49,413.87,441.7,411.33,439.5,410.23C437.3,409.12,433.7,407.76,431.5,407.21C429.3,406.65,424.35,405.99,420.5,405.74C416.65,405.49,410.35,405.62,406.5,406.03C402.65,406.43,396.8,407.86,393.5,409.2ZM145.96,338L209.98,338C270.28,338,274,338.1,274.01,339.75C274.01,340.71,268.41,369.4,261.57,403.5C254.72,437.6,247.09,474.95,244.61,486.5C242.13,498.05,239.46,510.2,238.66,513.5C237.87,516.8,235.88,523.1,234.24,527.5C232.6,531.9,229.68,538.65,227.75,542.5C225.83,546.35,221.56,553.1,218.27,557.5C214.98,561.9,209.41,567.92,205.9,570.87C202.38,573.82,196.57,577.92,193,579.99C189.43,582.05,182.45,585.35,177.5,587.31C172.55,589.26,164.68,591.68,160,592.68C153.07,594.16,146.87,594.5,126.5,594.5C105.9,594.5,100,594.17,93,592.65C88.33,591.63,80.45,589.23,75.5,587.32C70.55,585.41,63.35,581.97,59.5,579.68C55.65,577.39,48.77,571.91,44.2,567.51C39.64,563.1,35.66,558.6,35.36,557.5C34.95,555.96,37,553.33,44.16,546.18C49.3,541.05,60.86,530.03,69.85,521.68C78.84,513.33,86.83,506.16,87.6,505.75C88.56,505.24,91.61,507.5,97.25,512.91C102.77,518.2,107.65,521.83,112,523.9C117.7,526.62,119.55,527,127,526.98C133.29,526.98,136.54,526.47,139.5,525.06C141.7,524.01,145.27,521.2,147.44,518.82C149.61,516.45,152.17,512.7,153.13,510.5C154.09,508.3,156.22,500.43,157.86,493C159.5,485.57,164.03,463.41,167.92,443.75C171.81,424.09,175.01,407.21,175.01,406.25C175.02,404.9,173.83,404.33,169.76,403.76C166.87,403.35,157.41,403.01,148.75,403.01C133.08,403,133,402.99,133,400.75C133.01,399.51,135.53,385.9,138.62,370.5C141.7,355.1,144.62,341.49,145.09,340.25L145.96,338ZM592.37,341L679.5,340.97L678.78,345.23C678.39,347.58,676.26,361.88,674.04,377C671.83,392.13,665.77,433.75,660.57,469.5C655.38,505.25,651.21,534.58,651.31,534.67C651.42,534.76,662.98,527.62,677,518.79C691.02,509.96,707.11,499.87,712.75,496.37C718.39,492.87,723.34,490.18,723.75,490.4C724.16,490.62,724.85,498.83,725.27,508.65C725.7,518.47,726.46,535.27,726.98,546C727.49,556.73,728.15,571.69,729,593L636,593C562.29,593,542.99,592.74,542.97,591.75C542.95,591.06,554.06,534.36,567.65,465.75L592.37,341ZM708.2,340.99L959.5,341.5L959.28,346C959.15,348.48,956.43,364.45,947.41,412.5L874,413L873.49,415.25C873.21,416.49,868.69,438.43,863.45,464C858.2,489.57,850.37,527.83,846.04,549C841.7,570.17,837.9,588.74,837,593L751,593L751,590.5C751,589.13,752.32,580.46,753.94,571.25C755.56,562.04,759.87,536.95,763.52,515.5C767.16,494.05,772.6,462.32,775.59,445C778.58,427.68,780.79,413.39,780.51,413.25C780.23,413.11,778.09,414.07,775.75,415.38C773.41,416.69,760.92,424.18,748,432.03C735.08,439.87,721.01,448.25,716.75,450.65C712.49,453.04,708.77,454.89,708.48,454.75C708.2,454.61,707.69,434.7,707.34,410.5C706.99,386.3,707.05,360.76,707.45,353.75L708.2,340.99Z" />
	<path class="shp1" d="M390,562C390,561.98,454,467.02,454,467C454,466.98,424,422,424,422C424,422,390,562.02,390,562ZM426,371C426,371.02,362,465.98,362,466C362,466.02,392,511,392,511C392,511,426,370.98,426,371Z" />
</svg>